<svg xmlns="http://www.w3.org/2000/svg" xmlns:xlink="http://www.w3.org/1999/xlink" viewBox="177 379 166 36" preserveAspectRatio="xMinYMid meet" role="img" aria-label="School of Social Work Data Lab, University of Michigan"> <path fill-rule="nonzero" fill="rgb(92.5%, 89.4%, 83.1%)" fill-opacity="1" d="M 227.359375 410.605469 L 227.957031 410.605469 L 227.957031 383 L 227.359375 383 Z M 227.359375 410.605469 "></path> <path fill-rule="nonzero" fill="rgb(92.5%, 89.4%, 83.1%)" fill-opacity="1" d="M 262.269531 408.972656 C 262.277344 410.144531 262.277344 410.300781 262.894531 410.316406 L 262.894531 410.601562 L 260.761719 410.601562 L 260.761719 410.316406 C 261.308594 410.273438 261.367188 410.1875 261.375 409.636719 C 261.382812 409.425781 261.382812 409.1875 261.382812 408.980469 L 261.382812 407.132812 C 261.382812 406.519531 261.375 406.300781 261.355469 406.136719 C 261.316406 405.855469 261.179688 405.800781 260.761719 405.765625 L 260.761719 405.492188 L 263.074219 405.5 C 264.332031 405.5 264.730469 406.101562 264.730469 406.808594 C 264.730469 407.300781 264.425781 407.941406 263.722656 408.15625 L 264.628906 409.730469 C 264.953125 410.332031 265.128906 410.46875 265.539062 410.527344 L 265.539062 410.699219 C 265.429688 410.707031 265.320312 410.714844 265.207031 410.714844 C 264.242188 410.714844 263.847656 410.382812 263.441406 409.523438 L 263.160156 408.921875 C 262.855469 408.277344 262.753906 408.320312 262.273438 408.308594 L 262.273438 408.972656 Z M 262.269531 407.859375 C 262.40625 407.886719 262.601562 407.910156 262.75 407.910156 C 263.328125 407.914062 263.765625 407.457031 263.789062 407.046875 C 263.820312 406.457031 263.523438 405.945312 262.582031 405.945312 C 262.453125 405.945312 262.371094 405.953125 262.269531 405.972656 Z M 327.5 408.378906 L 327.5 408.65625 C 327.039062 408.679688 327.039062 408.8125 327.023438 409.78125 L 327.023438 410.164062 C 326.628906 410.410156 326.0625 410.765625 325.058594 410.765625 C 323.304688 410.765625 322.464844 409.433594 322.464844 408.097656 C 322.464844 406.460938 323.570312 405.398438 324.957031 405.398438 C 325.828125 405.398438 326.332031 405.726562 326.746094 405.980469 L 327.011719 405.675781 L 327.050781 407.273438 L 326.84375 407.308594 C 326.738281 407.007812 326.582031 406.65625 326.199219 406.269531 C 326.027344 406.105469 325.703125 405.890625 325.1875 405.890625 C 324.296875 405.890625 323.558594 406.640625 323.558594 408.109375 C 323.558594 409.285156 324.136719 410.289062 325.128906 410.289062 C 325.699219 410.289062 325.988281 409.890625 326.015625 409.859375 C 326.105469 409.722656 326.128906 409.601562 326.121094 409.375 C 326.097656 408.726562 326.007812 408.710938 325.441406 408.65625 L 325.441406 408.378906 Z M 259.898438 410.597656 C 259.898438 410.230469 259.964844 409.625 260.007812 409.277344 L 259.761719 409.277344 C 259.585938 410.1875 259.074219 410.144531 258.335938 410.144531 C 257.65625 410.144531 257.519531 409.960938 257.519531 409.628906 L 257.519531 408.203125 L 258.070312 408.203125 C 258.699219 408.203125 258.878906 408.257812 258.878906 408.828125 L 259.125 408.828125 L 259.125 407.144531 L 258.878906 407.144531 C 258.832031 407.597656 258.738281 407.746094 258.078125 407.746094 L 257.523438 407.746094 L 257.523438 405.949219 L 258.148438 405.949219 C 259.019531 405.949219 259.328125 406.011719 259.445312 406.707031 L 259.675781 406.707031 L 259.644531 405.492188 L 256.011719 405.492188 L 256.011719 405.765625 C 256.378906 405.804688 256.539062 405.824219 256.589844 406.066406 C 256.625 406.222656 256.628906 406.785156 256.628906 406.988281 L 256.628906 408.78125 C 256.628906 408.921875 256.625 409.535156 256.621094 409.660156 C 256.605469 410.214844 256.539062 410.265625 256.011719 410.316406 L 256.011719 410.597656 Z M 279.726562 410.597656 L 279.726562 410.324219 C 280.125 410.28125 280.277344 410.265625 280.378906 410.164062 C 280.496094 410.050781 280.496094 409.921875 280.5 409.363281 L 280.5 408.464844 L 279.144531 406.363281 C 278.773438 405.8125 278.769531 405.796875 278.277344 405.769531 L 278.277344 405.488281 L 280.933594 405.488281 L 280.933594 405.769531 C 280.398438 405.785156 280.160156 405.796875 280.160156 406.042969 C 280.160156 406.179688 280.253906 406.339844 280.382812 406.558594 L 281.164062 407.835938 L 281.886719 406.5625 C 282.015625 406.308594 282.089844 406.160156 282.089844 406.042969 C 282.089844 405.796875 281.878906 405.792969 281.523438 405.769531 L 281.523438 405.488281 L 283.515625 405.488281 L 283.515625 405.769531 C 283.003906 405.785156 282.855469 405.9375 282.269531 406.890625 L 281.476562 408.21875 L 281.476562 409.285156 C 281.476562 410.207031 281.480469 410.28125 282.238281 410.324219 L 282.238281 410.601562 L 279.726562 410.601562 Z M 255.527344 405.492188 L 255.527344 405.769531 C 255.035156 405.84375 254.96875 405.976562 254.550781 406.992188 L 252.996094 410.699219 L 252.71875 410.699219 L 251.324219 406.933594 C 250.976562 405.964844 250.933594 405.847656 250.421875 405.769531 L 250.421875 405.492188 L 252.84375 405.492188 L 252.84375 405.769531 C 252.429688 405.785156 252.164062 405.796875 252.164062 406.09375 C 252.164062 406.238281 252.199219 406.363281 252.339844 406.789062 L 253.226562 409.386719 L 254.265625 406.699219 C 254.332031 406.519531 254.417969 406.289062 254.417969 406.160156 C 254.417969 405.792969 254.058594 405.773438 253.738281 405.769531 L 253.738281 405.492188 Z M 237.429688 405.492188 L 237.429688 405.769531 C 236.753906 405.820312 236.753906 405.84375 236.746094 406.925781 L 236.746094 408.125 C 236.746094 408.746094 236.757812 409.28125 237.085938 409.761719 C 237.347656 410.140625 237.789062 410.191406 238.011719 410.191406 C 238.742188 410.191406 239.144531 409.8125 239.320312 409.207031 C 239.464844 408.730469 239.472656 407.835938 239.472656 407.242188 C 239.472656 407.054688 239.472656 406.445312 239.464844 406.28125 C 239.433594 405.820312 239.195312 405.804688 238.742188 405.769531 L 238.742188 405.492188 L 240.6875 405.492188 L 240.6875 405.769531 C 240.207031 405.757812 240.105469 405.867188 240.078125 406.375 C 240.070312 406.496094 240.011719 407.914062 240.007812 408.132812 C 239.992188 408.519531 239.96875 408.90625 239.882812 409.273438 C 239.539062 410.648438 238.199219 410.722656 237.84375 410.722656 C 237.5625 410.722656 236.984375 410.675781 236.507812 410.359375 C 235.746094 409.84375 235.738281 409.078125 235.738281 408.257812 L 235.738281 407.097656 C 235.734375 406.546875 235.734375 406.304688 235.71875 406.171875 C 235.675781 405.855469 235.515625 405.792969 235.132812 405.769531 L 235.132812 405.492188 Z M 274.210938 410.597656 L 274.210938 410.382812 C 274.683594 410.375 274.8125 410.203125 274.8125 409.796875 L 274.8125 406.035156 L 274.175781 406.035156 C 273.601562 406.035156 273.21875 406.011719 273.171875 406.925781 L 272.90625 406.925781 L 272.949219 405.496094 L 277.585938 405.496094 L 277.628906 406.925781 L 277.359375 406.925781 C 277.316406 406.011719 276.933594 406.035156 276.355469 406.035156 L 275.722656 406.035156 L 275.722656 409.796875 C 275.722656 410.203125 275.851562 410.375 276.320312 410.382812 L 276.320312 410.597656 Z M 265.820312 409.007812 L 266.082031 408.980469 C 266.363281 409.8125 266.832031 410.257812 267.597656 410.257812 C 268.140625 410.257812 268.621094 410.027344 268.621094 409.476562 C 268.621094 408.898438 268.0625 408.667969 267.816406 408.566406 C 267.613281 408.488281 267.398438 408.421875 267.195312 408.339844 C 266.777344 408.191406 265.988281 407.867188 265.988281 406.875 C 265.988281 405.921875 266.738281 405.386719 267.613281 405.386719 C 267.953125 405.386719 268.351562 405.457031 268.785156 405.734375 L 269.097656 405.511719 L 269.261719 407.027344 L 269.007812 407.078125 C 268.921875 406.742188 268.855469 406.589844 268.65625 406.324219 C 268.410156 406.003906 268.0625 405.855469 267.65625 405.855469 C 267.113281 405.855469 266.796875 406.117188 266.796875 406.523438 C 266.796875 407.128906 267.398438 407.332031 267.96875 407.519531 C 268.257812 407.613281 268.496094 407.695312 268.703125 407.8125 C 269.109375 408.054688 269.441406 408.5 269.441406 409.117188 C 269.441406 410 268.71875 410.730469 267.644531 410.730469 C 266.949219 410.730469 266.523438 410.457031 266.324219 410.324219 L 265.898438 410.015625 Z M 241.335938 410.597656 L 241.335938 410.324219 C 241.757812 410.300781 241.914062 410.292969 241.972656 410.003906 C 242.046875 409.664062 242.066406 406.636719 242.074219 406.109375 C 241.792969 405.847656 241.675781 405.796875 241.335938 405.769531 L 241.335938 405.492188 L 242.871094 405.492188 C 243.296875 406.101562 243.390625 406.238281 244.140625 407.171875 L 245.566406 408.933594 L 245.566406 406.652344 C 245.558594 405.84375 245.539062 405.796875 244.726562 405.769531 L 244.726562 405.492188 L 246.734375 405.492188 L 246.734375 405.769531 C 246.179688 405.773438 246.132812 405.890625 246.125 406.722656 L 246.050781 410.664062 L 245.746094 410.664062 L 245.292969 410.09375 C 245.058594 409.800781 244.828125 409.515625 244.597656 409.230469 L 242.582031 406.742188 L 242.582031 409.390625 C 242.582031 410.214844 242.636719 410.242188 243.421875 410.324219 L 243.421875 410.601562 L 241.335938 410.601562 Z M 270.039062 410.597656 L 270.039062 410.324219 C 270.539062 410.257812 270.640625 410.203125 270.644531 409.664062 L 270.644531 406.945312 C 270.640625 405.882812 270.640625 405.855469 270.039062 405.769531 L 270.039062 405.492188 L 272.15625 405.492188 L 272.15625 405.769531 C 271.558594 405.828125 271.558594 405.851562 271.558594 406.945312 L 271.558594 409.007812 C 271.558594 409.1875 271.5625 409.761719 271.578125 409.910156 C 271.613281 410.222656 271.761719 410.292969 272.15625 410.324219 L 272.15625 410.597656 Z M 247.550781 410.597656 L 247.550781 410.324219 C 248.050781 410.257812 248.152344 410.203125 248.160156 409.664062 L 248.160156 406.945312 C 248.152344 405.882812 248.152344 405.855469 247.550781 405.769531 L 247.550781 405.492188 L 249.671875 405.492188 L 249.671875 405.769531 C 249.070312 405.828125 249.070312 405.851562 249.070312 406.945312 L 249.070312 409.007812 C 249.070312 409.1875 249.078125 409.761719 249.09375 409.910156 C 249.128906 410.222656 249.273438 410.292969 249.671875 410.324219 L 249.671875 410.597656 Z M 291.429688 410.351562 L 291.429688 410.632812 L 293.542969 410.632812 L 293.542969 410.351562 C 293.015625 410.300781 292.949219 410.253906 292.933594 409.695312 L 292.9375 408.238281 L 293.503906 408.238281 C 294.074219 408.238281 294.378906 408.292969 294.414062 408.863281 L 294.660156 408.863281 L 294.660156 407.179688 L 294.414062 407.179688 C 294.386719 407.730469 294.234375 407.785156 293.613281 407.785156 L 292.9375 407.785156 L 292.9375 406.015625 C 293.121094 405.992188 293.222656 405.988281 293.546875 405.988281 C 294.546875 405.988281 294.867188 405.984375 295.003906 406.78125 L 295.253906 406.78125 L 295.171875 405.53125 L 291.429688 405.53125 L 291.429688 405.804688 C 291.796875 405.84375 291.957031 405.863281 292.007812 406.101562 C 292.042969 406.261719 292.050781 406.824219 292.050781 407.027344 L 292.050781 408.816406 C 292.050781 408.957031 292.039062 409.570312 292.035156 409.695312 C 292.019531 410.253906 291.957031 410.300781 291.429688 410.351562 M 288.367188 410.292969 C 288.65625 410.285156 289.0625 410.144531 289.378906 409.664062 C 289.738281 409.109375 289.8125 408.601562 289.792969 407.933594 C 289.769531 407.277344 289.589844 406.714844 289.210938 406.3125 C 289.046875 406.136719 288.726562 405.878906 288.300781 405.894531 C 287.875 405.894531 287.558594 406.160156 287.398438 406.339844 C 287.035156 406.753906 286.871094 407.324219 286.871094 407.980469 C 286.871094 408.644531 286.960938 409.152344 287.335938 409.695312 C 287.667969 410.164062 288.078125 410.292969 288.367188 410.292969 M 290.917969 408.074219 C 290.917969 409.839844 289.714844 410.765625 288.363281 410.765625 C 286.875 410.765625 285.714844 409.695312 285.714844 408.066406 C 285.714844 406.675781 286.652344 405.414062 288.292969 405.421875 C 289.835938 405.429688 290.917969 406.527344 290.917969 408.074219 M 333.5 410.632812 L 333.5 410.359375 C 333.921875 410.335938 334.078125 410.332031 334.136719 410.039062 C 334.210938 409.703125 334.230469 406.675781 334.238281 406.144531 C 333.957031 405.886719 333.84375 405.832031 333.5 405.804688 L 333.5 405.53125 L 335.035156 405.53125 C 335.460938 406.140625 335.554688 406.273438 336.308594 407.207031 L 337.730469 408.972656 L 337.730469 406.6875 C 337.726562 405.878906 337.703125 405.832031 336.894531 405.804688 L 336.894531 405.53125 L 338.90625 405.53125 L 338.90625 405.804688 C 338.34375 405.8125 338.296875 405.925781 338.289062 406.757812 L 338.21875 410.699219 L 337.910156 410.699219 L 337.457031 410.128906 C 337.226562 409.839844 336.992188 409.546875 336.761719 409.269531 L 334.746094 406.78125 L 334.746094 409.425781 C 334.746094 410.253906 334.800781 410.28125 335.585938 410.359375 L 335.585938 410.632812 Z M 301.957031 410.632812 L 301.957031 410.359375 C 302.601562 410.316406 302.601562 410.289062 302.609375 409.339844 L 302.609375 406.773438 L 300.824219 410.699219 L 300.375 410.699219 L 298.734375 406.722656 L 298.695312 409.722656 C 298.695312 410.222656 298.753906 410.316406 299.296875 410.359375 L 299.296875 410.632812 L 297.527344 410.632812 L 297.527344 410.359375 C 297.9375 410.335938 298.097656 410.28125 298.125 409.933594 C 298.140625 409.796875 298.160156 409.367188 298.167969 409.085938 L 298.242188 406.945312 C 298.25 406.78125 298.25 406.535156 298.25 406.355469 C 298.25 405.847656 298.148438 405.8125 297.691406 405.804688 L 297.691406 405.53125 L 299.296875 405.53125 L 300.890625 409.40625 L 302.636719 405.53125 L 304.191406 405.53125 L 304.191406 405.832031 C 303.585938 405.867188 303.578125 405.933594 303.585938 406.726562 L 303.585938 408.832031 C 303.585938 409.183594 303.589844 409.613281 303.613281 409.875 C 303.640625 410.253906 303.789062 410.324219 304.191406 410.359375 L 304.191406 410.632812 Z M 305.171875 410.632812 L 305.171875 410.359375 C 305.671875 410.292969 305.773438 410.238281 305.78125 409.703125 L 305.78125 406.980469 C 305.773438 405.921875 305.773438 405.894531 305.171875 405.804688 L 305.171875 405.53125 L 307.292969 405.53125 L 307.292969 405.804688 C 306.691406 405.863281 306.691406 405.890625 306.691406 406.980469 L 306.691406 409.042969 C 306.691406 409.226562 306.703125 409.796875 306.714844 409.945312 C 306.75 410.257812 306.894531 410.332031 307.292969 410.359375 L 307.292969 410.632812 Z M 319.714844 410.632812 L 319.714844 410.359375 C 320.214844 410.292969 320.316406 410.238281 320.324219 409.703125 L 320.324219 406.980469 C 320.316406 405.921875 320.316406 405.894531 319.714844 405.804688 L 319.714844 405.53125 L 321.835938 405.53125 L 321.835938 405.804688 C 321.238281 405.863281 321.238281 405.890625 321.238281 406.980469 L 321.238281 409.042969 C 321.238281 409.226562 321.242188 409.796875 321.257812 409.945312 C 321.292969 410.257812 321.4375 410.332031 321.835938 410.359375 L 321.835938 410.632812 Z M 313.414062 410.632812 L 313.414062 410.359375 C 313.996094 410.308594 314 410.183594 314 409.695312 C 314.007812 409.515625 314.007812 409.332031 314.007812 409.152344 L 314.007812 407.011719 C 314.007812 406.679688 314.007812 406.34375 313.988281 406.1875 C 313.957031 405.882812 313.8125 405.839844 313.414062 405.804688 L 313.414062 405.53125 L 315.601562 405.53125 L 315.601562 405.804688 C 315.175781 405.847656 315.015625 405.863281 314.964844 406.144531 C 314.925781 406.308594 314.921875 406.683594 314.921875 406.992188 L 314.921875 407.695312 C 315.363281 407.71875 315.671875 407.730469 316.097656 407.730469 C 316.53125 407.730469 316.871094 407.71875 317.308594 407.695312 L 317.308594 406.839844 C 317.300781 405.90625 317.292969 405.867188 316.597656 405.804688 L 316.597656 405.53125 L 318.8125 405.53125 L 318.8125 405.804688 C 318.21875 405.878906 318.21875 405.886719 318.21875 406.855469 L 318.21875 409.007812 C 318.21875 409.207031 318.226562 409.855469 318.25 410.003906 C 318.285156 410.273438 318.4375 410.324219 318.8125 410.359375 L 318.8125 410.632812 L 316.601562 410.632812 L 316.601562 410.359375 C 317.113281 410.300781 317.25 410.289062 317.292969 409.933594 C 317.308594 409.789062 317.308594 409.59375 317.308594 409.226562 L 317.308594 408.289062 C 316.902344 408.273438 316.566406 408.253906 316.148438 408.253906 C 315.707031 408.253906 315.363281 408.265625 314.925781 408.289062 L 314.925781 409.226562 C 314.929688 410.289062 314.945312 410.289062 315.605469 410.359375 L 315.605469 410.632812 Z M 312.554688 409.5 C 312.332031 409.867188 311.789062 410.773438 310.378906 410.773438 C 308.839844 410.773438 307.84375 409.636719 307.84375 408.148438 C 307.84375 406.765625 308.691406 405.40625 310.414062 405.40625 C 311.320312 405.40625 311.800781 405.789062 312.097656 406.023438 L 312.445312 405.707031 L 312.472656 407.253906 L 312.246094 407.296875 C 312.160156 407 312.027344 406.761719 311.695312 406.398438 C 311.539062 406.234375 311.164062 405.898438 310.628906 405.898438 C 309.707031 405.898438 308.980469 406.652344 308.980469 407.976562 C 308.980469 409.097656 309.578125 410.152344 310.757812 410.152344 C 311.648438 410.152344 311.988281 409.65625 312.253906 409.269531 Z M 330.324219 406.539062 L 329.574219 408.65625 L 331.042969 408.65625 Z M 330.785156 410.632812 L 330.785156 410.359375 C 331.132812 410.335938 331.398438 410.308594 331.398438 410.027344 C 331.398438 409.925781 331.367188 409.816406 331.339844 409.722656 L 331.1875 409.203125 L 329.390625 409.203125 L 329.230469 409.644531 C 329.195312 409.753906 329.167969 409.855469 329.167969 409.960938 C 329.167969 410.324219 329.546875 410.34375 329.859375 410.359375 L 329.859375 410.632812 L 327.757812 410.632812 L 327.757812 410.359375 C 328.292969 410.335938 328.464844 410.230469 328.660156 409.695312 L 330.042969 405.90625 L 329.960938 405.785156 C 330.554688 405.589844 330.71875 405.5 330.972656 405.3125 C 331.074219 405.660156 331.089844 405.703125 331.203125 406.066406 L 332.335938 409.535156 C 332.535156 410.152344 332.632812 410.300781 333.171875 410.359375 L 333.171875 410.632812 Z M 330.785156 410.632812 "></path> <path fill-rule="nonzero" fill="rgb(100%, 79.598999%, 1.998901%)" fill-opacity="1" d="M 200.300781 405.789062 L 192.394531 394.984375 L 192.394531 402.84375 L 195.539062 402.84375 L 195.539062 410.605469 L 181 410.605469 L 181 402.84375 L 183.945312 402.84375 L 183.945312 390.761719 L 181 390.761719 L 181 383 L 192.421875 383 L 200.300781 393.882812 L 208.179688 383 L 219.601562 383 L 219.601562 390.761719 L 216.652344 390.761719 L 216.652344 402.84375 L 219.601562 402.84375 L 219.601562 410.605469 L 205.0625 410.605469 L 205.0625 402.84375 L 208.203125 402.84375 L 208.203125 394.984375 Z M 200.300781 405.789062 "></path> <path fill-rule="nonzero" fill="rgb(92.5%, 89.4%, 83.1%)" fill-opacity="1" d="M 238.476562 384.445312 C 238.476562 383.699219 238.246094 383.027344 237.167969 383.027344 C 236.316406 383.027344 235.75 383.402344 235.757812 384.304688 C 235.761719 384.820312 235.804688 385.132812 236.8125 385.75 C 237.5625 386.210938 238.03125 386.414062 238.03125 387.117188 C 238.03125 387.714844 237.734375 388.039062 237.132812 388.039062 C 236.203125 388.039062 236.160156 387.441406 236.160156 386.867188 L 235.683594 386.867188 C 235.640625 387.882812 236.09375 388.429688 237.109375 388.429688 C 238.015625 388.429688 238.492188 387.976562 238.492188 387.046875 C 238.492188 386.039062 237.835938 385.902344 237.195312 385.441406 C 236.605469 385.015625 236.21875 384.996094 236.21875 384.222656 C 236.21875 383.613281 236.570312 383.417969 237.132812 383.417969 C 237.835938 383.417969 237.996094 383.804688 238.007812 384.445312 Z M 238.476562 384.445312 "></path> <path fill-rule="nonzero" fill="rgb(92.5%, 89.4%, 83.1%)" fill-opacity="1" d="M 241.539062 388.429688 C 242.769531 388.429688 242.855469 387.210938 242.855469 386.835938 L 242.367188 386.835938 C 242.359375 387.507812 242.136719 388.039062 241.539062 388.039062 C 240.441406 388.039062 240.429688 387.109375 240.429688 385.730469 C 240.429688 384.347656 240.441406 383.417969 241.539062 383.417969 C 242.199219 383.417969 242.359375 383.957031 242.359375 384.535156 L 242.820312 384.535156 C 242.820312 384.066406 242.796875 383.027344 241.539062 383.027344 C 239.980469 383.027344 239.96875 384.324219 239.96875 385.730469 C 239.96875 387.132812 239.980469 388.429688 241.539062 388.429688 "></path> <path fill-rule="nonzero" fill="rgb(92.5%, 89.4%, 83.1%)" fill-opacity="1" d="M 244.804688 388.328125 L 244.804688 385.851562 L 246.851562 385.851562 L 246.851562 388.328125 L 247.3125 388.328125 L 247.3125 383.128906 L 246.851562 383.128906 L 246.851562 385.460938 L 244.804688 385.460938 L 244.804688 383.128906 L 244.34375 383.128906 L 244.34375 388.328125 Z M 244.804688 388.328125 "></path> <path fill-rule="nonzero" fill="rgb(92.5%, 89.4%, 83.1%)" fill-opacity="1" d="M 248.933594 385.730469 C 248.933594 387.132812 248.945312 388.429688 250.5 388.429688 C 252.058594 388.429688 252.070312 387.132812 252.070312 385.730469 C 252.070312 384.324219 252.058594 383.027344 250.5 383.027344 C 248.945312 383.027344 248.933594 384.324219 248.933594 385.730469 M 249.394531 385.730469 C 249.394531 384.347656 249.40625 383.417969 250.5 383.417969 C 251.597656 383.417969 251.609375 384.347656 251.609375 385.730469 C 251.609375 387.109375 251.597656 388.039062 250.5 388.039062 C 249.40625 388.039062 249.394531 387.109375 249.394531 385.730469 "></path> <path fill-rule="nonzero" fill="rgb(92.5%, 89.4%, 83.1%)" fill-opacity="1" d="M 253.605469 385.730469 C 253.605469 387.132812 253.621094 388.429688 255.175781 388.429688 C 256.730469 388.429688 256.742188 387.132812 256.742188 385.730469 C 256.742188 384.324219 256.730469 383.027344 255.175781 383.027344 C 253.621094 383.027344 253.605469 384.324219 253.605469 385.730469 M 254.066406 385.730469 C 254.066406 384.347656 254.078125 383.417969 255.175781 383.417969 C 256.269531 383.417969 256.28125 384.347656 256.28125 385.730469 C 256.28125 387.109375 256.269531 388.039062 255.175781 388.039062 C 254.078125 388.039062 254.066406 387.109375 254.066406 385.730469 "></path> <path fill-rule="nonzero" fill="rgb(92.5%, 89.4%, 83.1%)" fill-opacity="1" d="M 260.507812 388.328125 L 260.507812 387.9375 L 258.789062 387.9375 L 258.789062 383.128906 L 258.328125 383.128906 L 258.328125 388.328125 Z M 260.507812 388.328125 "></path> <path fill-rule="nonzero" fill="rgb(92.5%, 89.4%, 83.1%)" fill-opacity="1" d="M 264.015625 385.730469 C 264.015625 387.132812 264.03125 388.429688 265.585938 388.429688 C 267.140625 388.429688 267.15625 387.132812 267.15625 385.730469 C 267.15625 384.324219 267.140625 383.027344 265.585938 383.027344 C 264.03125 383.027344 264.015625 384.324219 264.015625 385.730469 M 264.476562 385.730469 C 264.476562 384.347656 264.492188 383.417969 265.585938 383.417969 C 266.679688 383.417969 266.695312 384.347656 266.695312 385.730469 C 266.695312 387.109375 266.679688 388.039062 265.585938 388.039062 C 264.492188 388.039062 264.476562 387.109375 264.476562 385.730469 "></path> <path fill-rule="nonzero" fill="rgb(92.5%, 89.4%, 83.1%)" fill-opacity="1" d="M 268.746094 388.328125 L 269.207031 388.328125 L 269.207031 385.851562 L 270.820312 385.851562 L 270.820312 385.460938 L 269.207031 385.460938 L 269.207031 383.519531 L 270.941406 383.519531 L 270.941406 383.128906 L 268.746094 383.128906 Z M 268.746094 388.328125 "></path> <path fill-rule="nonzero" fill="rgb(92.5%, 89.4%, 83.1%)" fill-opacity="1" d="M 277.183594 384.445312 C 277.183594 383.699219 276.953125 383.027344 275.875 383.027344 C 275.023438 383.027344 274.457031 383.402344 274.464844 384.304688 C 274.46875 384.820312 274.511719 385.132812 275.523438 385.75 C 276.269531 386.210938 276.738281 386.414062 276.738281 387.117188 C 276.738281 387.714844 276.441406 388.039062 275.839844 388.039062 C 274.910156 388.039062 274.867188 387.441406 274.867188 386.867188 L 274.390625 386.867188 C 274.347656 387.882812 274.800781 388.429688 275.816406 388.429688 C 276.722656 388.429688 277.199219 387.976562 277.199219 387.046875 C 277.199219 386.039062 276.542969 385.902344 275.902344 385.441406 C 275.3125 385.015625 274.925781 384.996094 274.925781 384.222656 C 274.925781 383.613281 275.277344 383.417969 275.839844 383.417969 C 276.542969 383.417969 276.703125 383.804688 276.71875 384.445312 Z M 277.183594 384.445312 "></path> <path fill-rule="nonzero" fill="rgb(92.5%, 89.4%, 83.1%)" fill-opacity="1" d="M 278.695312 385.730469 C 278.695312 387.132812 278.710938 388.429688 280.265625 388.429688 C 281.820312 388.429688 281.835938 387.132812 281.835938 385.730469 C 281.835938 384.324219 281.820312 383.027344 280.265625 383.027344 C 278.710938 383.027344 278.695312 384.324219 278.695312 385.730469 M 279.15625 385.730469 C 279.15625 384.347656 279.171875 383.417969 280.265625 383.417969 C 281.359375 383.417969 281.375 384.347656 281.375 385.730469 C 281.375 387.109375 281.359375 388.039062 280.265625 388.039062 C 279.171875 388.039062 279.15625 387.109375 279.15625 385.730469 "></path> <path fill-rule="nonzero" fill="rgb(92.5%, 89.4%, 83.1%)" fill-opacity="1" d="M 284.917969 388.429688 C 286.148438 388.429688 286.234375 387.210938 286.234375 386.835938 L 285.746094 386.835938 C 285.738281 387.507812 285.515625 388.039062 284.917969 388.039062 C 283.824219 388.039062 283.808594 387.109375 283.808594 385.730469 C 283.808594 384.347656 283.824219 383.417969 284.917969 383.417969 C 285.578125 383.417969 285.738281 383.957031 285.738281 384.535156 L 286.199219 384.535156 C 286.199219 384.066406 286.175781 383.027344 284.917969 383.027344 C 283.363281 383.027344 283.347656 384.324219 283.347656 385.730469 C 283.347656 387.132812 283.363281 388.429688 284.917969 388.429688 "></path> <path fill-rule="nonzero" fill="rgb(92.5%, 89.4%, 83.1%)" fill-opacity="1" d="M 287.777344 388.328125 L 288.238281 388.328125 L 288.238281 383.128906 L 287.777344 383.128906 Z M 287.777344 388.328125 "></path> <path fill-rule="nonzero" fill="rgb(92.5%, 89.4%, 83.1%)" fill-opacity="1" d="M 290.578125 386.570312 L 291.457031 383.632812 L 291.46875 383.632812 L 292.355469 386.570312 Z M 291.210938 383.128906 L 289.570312 388.328125 L 290.03125 388.328125 L 290.441406 386.960938 L 292.476562 386.960938 L 292.894531 388.328125 L 293.378906 388.328125 L 291.757812 383.128906 Z M 291.210938 383.128906 "></path> <path fill-rule="nonzero" fill="rgb(92.5%, 89.4%, 83.1%)" fill-opacity="1" d="M 296.8125 388.328125 L 296.8125 387.9375 L 295.089844 387.9375 L 295.089844 383.128906 L 294.628906 383.128906 L 294.628906 388.328125 Z M 296.8125 388.328125 "></path> <path fill-rule="nonzero" fill="rgb(92.5%, 89.4%, 83.1%)" fill-opacity="1" d="M 301.511719 387.722656 L 301.5 387.722656 L 300.449219 383.128906 L 299.957031 383.128906 L 301.210938 388.328125 L 301.789062 388.328125 L 302.859375 383.707031 L 302.875 383.707031 L 303.917969 388.328125 L 304.523438 388.328125 L 305.8125 383.128906 L 305.359375 383.128906 L 304.25 387.6875 L 304.234375 387.6875 L 303.191406 383.128906 L 302.570312 383.128906 Z M 301.511719 387.722656 "></path> <path fill-rule="nonzero" fill="rgb(92.5%, 89.4%, 83.1%)" fill-opacity="1" d="M 306.984375 385.730469 C 306.984375 387.132812 307 388.429688 308.554688 388.429688 C 310.109375 388.429688 310.125 387.132812 310.125 385.730469 C 310.125 384.324219 310.109375 383.027344 308.554688 383.027344 C 307 383.027344 306.984375 384.324219 306.984375 385.730469 M 307.445312 385.730469 C 307.445312 384.347656 307.460938 383.417969 308.554688 383.417969 C 309.648438 383.417969 309.664062 384.347656 309.664062 385.730469 C 309.664062 387.109375 309.648438 388.039062 308.554688 388.039062 C 307.460938 388.039062 307.445312 387.109375 307.445312 385.730469 "></path> <path fill-rule="nonzero" fill="rgb(92.5%, 89.4%, 83.1%)" fill-opacity="1" d="M 312.175781 383.519531 L 313.121094 383.519531 C 313.660156 383.519531 313.941406 383.65625 313.941406 384.367188 C 313.941406 385.238281 313.617188 385.417969 312.925781 385.417969 L 312.175781 385.417969 Z M 313.046875 385.808594 C 314.046875 385.808594 313.898438 386.808594 313.90625 387.03125 C 313.910156 387.3125 313.933594 388.175781 313.976562 388.328125 L 314.414062 388.328125 C 314.402344 388.125 314.367188 387.925781 314.367188 387.722656 C 314.367188 385.867188 314.324219 385.777344 313.59375 385.628906 L 313.59375 385.613281 C 314.292969 385.457031 314.402344 385.023438 314.402344 384.375 C 314.402344 383.460938 314.148438 383.128906 313.148438 383.128906 L 311.714844 383.128906 L 311.714844 388.328125 L 312.175781 388.328125 L 312.175781 385.808594 Z M 313.046875 385.808594 "></path> <path fill-rule="nonzero" fill="rgb(92.5%, 89.4%, 83.1%)" fill-opacity="1" d="M 316.519531 388.328125 L 316.519531 385.664062 L 316.53125 385.664062 L 318.410156 388.328125 L 318.988281 388.328125 L 316.988281 385.554688 L 318.929688 383.128906 L 318.375 383.128906 L 316.53125 385.511719 L 316.519531 385.511719 L 316.519531 383.128906 L 316.058594 383.128906 L 316.058594 388.328125 Z M 316.519531 388.328125 "></path> <path fill-rule="nonzero" fill="rgb(92.5%, 89.4%, 83.1%)" fill-opacity="1" d="M 235.878906 402.679688 L 238.558594 402.679688 C 242.09375 402.679688 242.660156 400.792969 242.660156 396.953125 C 242.660156 393.015625 242.257812 391.128906 238.980469 391.128906 L 235.878906 391.128906 Z M 236.917969 391.992188 L 238.28125 391.992188 C 241.171875 391.992188 241.621094 392.953125 241.621094 396.265625 C 241.621094 400.984375 241.3125 401.816406 238.183594 401.816406 L 236.917969 401.816406 Z M 236.917969 391.992188 "></path> <path fill-rule="nonzero" fill="rgb(92.5%, 89.4%, 83.1%)" fill-opacity="1" d="M 246.167969 398.777344 L 248.148438 392.246094 L 248.179688 392.246094 L 250.175781 398.777344 Z M 247.597656 391.128906 L 243.898438 402.679688 L 244.933594 402.679688 L 245.859375 399.640625 L 250.449219 399.640625 L 251.390625 402.679688 L 252.476562 402.679688 L 248.828125 391.128906 Z M 247.597656 391.128906 "></path> <path fill-rule="nonzero" fill="rgb(92.5%, 89.4%, 83.1%)" fill-opacity="1" d="M 255.789062 402.679688 L 256.828125 402.679688 L 256.828125 391.992188 L 259.683594 391.992188 L 259.683594 391.128906 L 252.933594 391.128906 L 252.933594 391.992188 L 255.789062 391.992188 Z M 255.789062 402.679688 "></path> <path fill-rule="nonzero" fill="rgb(92.5%, 89.4%, 83.1%)" fill-opacity="1" d="M 262.394531 398.777344 L 264.375 392.246094 L 264.40625 392.246094 L 266.402344 398.777344 Z M 263.824219 391.128906 L 260.125 402.679688 L 261.160156 402.679688 L 262.085938 399.640625 L 266.675781 399.640625 L 267.617188 402.679688 L 268.703125 402.679688 L 265.054688 391.128906 Z M 263.824219 391.128906 "></path> <path fill-rule="nonzero" fill="rgb(92.5%, 89.4%, 83.1%)" fill-opacity="1" d="M 278.539062 402.679688 L 278.539062 401.816406 L 274.664062 401.816406 L 274.664062 391.128906 L 273.625 391.128906 L 273.625 402.679688 Z M 278.539062 402.679688 "></path> <path fill-rule="nonzero" fill="rgb(92.5%, 89.4%, 83.1%)" fill-opacity="1" d="M 281.328125 398.777344 L 283.308594 392.246094 L 283.339844 392.246094 L 285.339844 398.777344 Z M 282.757812 391.128906 L 279.058594 402.679688 L 280.097656 402.679688 L 281.019531 399.640625 L 285.613281 399.640625 L 286.554688 402.679688 L 287.644531 402.679688 L 283.992188 391.128906 Z M 282.757812 391.128906 "></path> <path fill-rule="nonzero" fill="rgb(92.5%, 89.4%, 83.1%)" fill-opacity="1" d="M 290.011719 397.128906 L 292.121094 397.128906 C 293.90625 397.128906 294.210938 398.519531 294.210938 399.542969 C 294.210938 401.238281 293.386719 401.816406 291.664062 401.816406 L 290.011719 401.816406 Z M 292.28125 402.679688 C 294.246094 402.679688 295.253906 401.542969 295.253906 399.464844 C 295.253906 398.007812 294.847656 397 293.304688 396.679688 L 293.304688 396.648438 C 294.78125 396.246094 295.007812 395.289062 295.007812 393.894531 C 295.007812 391.863281 294.070312 391.128906 292.234375 391.128906 L 288.972656 391.128906 L 288.972656 402.679688 Z M 290.011719 396.265625 L 290.011719 391.992188 L 292.074219 391.992188 C 292.902344 391.992188 293.972656 392.023438 293.972656 393.945312 C 293.972656 395.257812 293.5 396.265625 292.003906 396.265625 Z M 290.011719 396.265625 "></path> </svg>
